<?xml version="1.0" encoding="UTF-8" standalone="no"?>
<!DOCTYPE svg PUBLIC "-//W3C//DTD SVG 1.1//EN" "http://www.w3.org/Graphics/SVG/1.1/DTD/svg11.dtd">
<svg xmlns="http://www.w3.org/2000/svg" version="1.1" viewBox="0.00 0.00 500.00 500.00" width="500.00" height="500.00">
<g stroke-width="2.00" fill="none" stroke-linecap="butt">
<path stroke="#808080" vector-effect="non-scaling-stroke" d="
  M 356.25 174.01
  A 2.79 2.79 0.0 0 0 353.46 171.22
  L 140.24 171.22
  A 2.79 2.79 0.0 0 0 137.45 174.01
  L 137.45 204.49
  A 2.79 2.79 0.0 0 0 140.24 207.28
  L 353.46 207.28
  A 2.79 2.79 0.0 0 0 356.25 204.49
  L 356.25 174.01"
/>
<path stroke="#808080" vector-effect="non-scaling-stroke" d="
  M 220.05 378.88
  Q 220.27 378.45 220.27 377.98
  L 220.27 247.76
  Q 220.27 247.25 219.76 247.25
  L 180.77 247.25
  A 0.23 0.22 90.0 0 0 180.55 247.48
  L 180.55 378.02
  A 2.49 2.48 -90.0 0 0 183.03 380.51
  Q 199.87 380.48 217.65 380.52
  C 218.71 380.52 219.60 379.80 220.05 378.88"
/>
<path stroke="#808080" vector-effect="non-scaling-stroke" d="
  M 313.39 247.69
  A 0.45 0.44 -0.0 0 0 312.94 247.25
  L 274.22 247.25
  Q 273.69 247.25 273.69 247.78
  L 273.69 377.97
  A 2.53 2.53 0.0 0 0 276.22 380.50
  L 310.51 380.50
  A 2.88 2.88 0.0 0 0 313.39 377.62
  L 313.39 247.69"
/>
</g>
<path fill="#000000" d="
  M 0.00 0.00
  L 500.00 0.00
  L 500.00 500.00
  L 0.00 500.00
  L 0.00 0.00
  Z
  M 356.25 174.01
  A 2.79 2.79 0.0 0 0 353.46 171.22
  L 140.24 171.22
  A 2.79 2.79 0.0 0 0 137.45 174.01
  L 137.45 204.49
  A 2.79 2.79 0.0 0 0 140.24 207.28
  L 353.46 207.28
  A 2.79 2.79 0.0 0 0 356.25 204.49
  L 356.25 174.01
  Z
  M 220.05 378.88
  Q 220.27 378.45 220.27 377.98
  L 220.27 247.76
  Q 220.27 247.25 219.76 247.25
  L 180.77 247.25
  A 0.23 0.22 90.0 0 0 180.55 247.48
  L 180.55 378.02
  A 2.49 2.48 -90.0 0 0 183.03 380.51
  Q 199.87 380.48 217.65 380.52
  C 218.71 380.52 219.60 379.80 220.05 378.88
  Z
  M 313.39 247.69
  A 0.45 0.44 -0.0 0 0 312.94 247.25
  L 274.22 247.25
  Q 273.69 247.25 273.69 247.78
  L 273.69 377.97
  A 2.53 2.53 0.0 0 0 276.22 380.50
  L 310.51 380.50
  A 2.88 2.88 0.0 0 0 313.39 377.62
  L 313.39 247.69
  Z"
/>
<rect fill="#ffffff" x="137.45" y="171.22" width="218.80" height="36.06" rx="2.79"/>
<path fill="#ffffff" d="
  M 220.05 378.88
  C 219.60 379.80 218.71 380.52 217.65 380.52
  Q 199.87 380.48 183.03 380.51
  A 2.49 2.48 90.0 0 1 180.55 378.02
  L 180.55 247.48
  A 0.23 0.22 90.0 0 1 180.77 247.25
  L 219.76 247.25
  Q 220.27 247.25 220.27 247.76
  L 220.27 377.98
  Q 220.27 378.45 220.05 378.88
  Z"
/>
<path fill="#ffffff" d="
  M 313.39 247.69
  L 313.39 377.62
  A 2.88 2.88 0.0 0 1 310.51 380.50
  L 276.22 380.50
  A 2.53 2.53 0.0 0 1 273.69 377.97
  L 273.69 247.78
  Q 273.69 247.25 274.22 247.25
  L 312.94 247.25
  A 0.45 0.44 0.0 0 1 313.39 247.69
  Z"
/>
</svg>
